<svg width="27.134277" height="18.092773" viewBox="0 0 27.1343 18.0928" fill="none" xmlns="http://www.w3.org/2000/svg" xmlns:xlink="http://www.w3.org/1999/xlink">
	<desc>
			Created with Pixso.
	</desc>
	<defs/>
	<path id="Vector" d="M26.56 2.83C26.41 2.29 26.11 1.79 25.7 1.4C25.27 1 24.75 0.71 24.18 0.56C22.06 0 13.55 0 13.55 0C10.01 -0.04 6.46 0.14 2.94 0.53C2.37 0.69 1.85 0.98 1.43 1.39C1.01 1.79 0.71 2.29 0.55 2.83C0.17 4.88 -0.02 6.96 0 9.04C-0.02 11.12 0.17 13.2 0.55 15.25C0.7 15.79 1 16.29 1.42 16.68C1.84 17.08 2.37 17.37 2.94 17.52C5.09 18.08 13.55 18.08 13.55 18.08C17.1 18.12 20.65 17.95 24.18 17.55C24.75 17.4 25.27 17.12 25.7 16.71C26.11 16.32 26.41 15.83 26.56 15.28C26.95 13.23 27.14 11.15 27.13 9.07C27.16 6.97 26.97 4.89 26.56 2.83L26.56 2.83ZM10.85 12.91L10.85 5.17L17.93 9.04L10.85 12.91Z" fill="#EFEBE3" fill-opacity="1.000000" fill-rule="nonzero"/>
</svg>
